<svg width="1162" height="321" viewBox="0 0 1162 321" fill="none" xmlns="http://www.w3.org/2000/svg">
<path d="M78.7846 177.229C78.2178 190.045 74.6141 199.743 67.9736 206.333C61.3332 212.923 51.9697 216.213 39.8731 216.213C27.1591 216.213 17.4211 212.032 10.6592 203.671C3.8871 195.309 0.506134 183.384 0.506134 167.895V148.985C0.506134 133.546 4.00857 121.641 11.0033 113.28C17.9981 104.918 27.726 100.737 40.1869 100.737C52.4354 100.737 61.7381 104.158 68.0951 111.002C74.4521 117.845 78.0659 127.675 78.9365 140.491H56.1605C55.958 132.565 54.7332 127.098 52.4961 124.081C50.259 121.075 46.1492 119.566 40.1869 119.566C34.1133 119.566 29.8112 121.692 27.2907 125.934C24.7701 130.175 23.4339 137.171 23.272 146.889V168.118C23.272 179.284 24.5171 186.957 27.0174 191.128C29.5177 195.299 33.7995 197.384 39.8731 197.384C45.8455 197.384 49.9553 195.926 52.2228 193.021C54.4903 190.116 55.7758 184.851 56.0795 177.229H78.7846Z" fill="white"/>
<path d="M89.4944 203.559C89.4944 200.057 90.6686 197.182 93.007 194.914C95.3453 192.647 98.4023 191.513 102.158 191.513C105.812 191.513 108.849 192.636 111.268 194.874C113.688 197.111 114.892 200.006 114.892 203.559C114.892 207.163 113.667 210.059 111.228 212.245C108.778 214.432 105.762 215.525 102.158 215.525C98.5036 215.525 95.4769 214.422 93.0879 212.205C90.699 209.988 89.4944 207.113 89.4944 203.559Z" fill="white"/>
<path d="M184.516 191.665H153.561L147.538 214.675H123.527L158.652 102.266H179.414L214.772 214.675H190.529L184.516 191.665ZM158.501 172.754H179.495L168.998 132.686L158.501 172.754Z" fill="white"/>
<path d="M222.01 203.559C222.01 200.057 223.184 197.182 225.523 194.914C227.861 192.647 230.918 191.513 234.674 191.513C238.328 191.513 241.365 192.636 243.784 194.874C246.203 197.111 247.408 200.006 247.408 203.559C247.408 207.163 246.183 210.059 243.743 212.245C241.294 214.432 238.277 215.525 234.674 215.525C231.019 215.525 227.993 214.422 225.604 212.205C223.205 209.988 222.01 207.113 222.01 203.559Z" fill="white"/>
<path d="M310.847 185.186C310.847 180.61 309.672 177.148 307.334 174.799C304.996 172.461 300.734 170.031 294.559 167.5C283.293 163.228 275.184 158.227 270.245 152.487C265.305 146.747 262.835 139.965 262.835 132.15C262.835 122.684 266.195 115.072 272.907 109.332C279.618 103.592 288.152 100.727 298.497 100.727C305.39 100.727 311.545 102.185 316.95 105.09C322.356 107.995 326.506 112.105 329.422 117.4C332.337 122.694 333.784 128.718 333.784 135.46H311.17C311.17 130.206 310.047 126.207 307.81 123.454C305.573 120.7 302.344 119.323 298.122 119.323C294.154 119.323 291.067 120.498 288.86 122.836C286.643 125.175 285.54 128.333 285.54 132.291C285.54 135.379 286.775 138.173 289.245 140.663C291.715 143.164 296.088 145.745 302.364 148.418C313.327 152.386 321.293 157.245 326.253 163.005C331.223 168.766 333.703 176.105 333.703 185.003C333.703 194.782 330.586 202.426 324.36 207.933C318.135 213.44 309.662 216.193 298.963 216.193C291.705 216.193 285.094 214.695 279.122 211.719C273.15 208.732 268.483 204.46 265.112 198.903C261.742 193.345 260.051 186.785 260.051 179.213H282.827C282.827 185.702 284.092 190.409 286.613 193.345C289.133 196.281 293.253 197.749 298.963 197.749C306.889 197.769 310.847 193.578 310.847 185.186Z" fill="white"/>
<path d="M453.475 177.229C452.908 190.045 449.304 199.743 442.664 206.333C436.023 212.923 426.66 216.214 414.563 216.214C401.849 216.214 392.111 212.033 385.349 203.671C378.577 195.309 375.196 183.384 375.196 167.885V148.974C375.196 133.536 378.699 121.631 385.693 113.27C392.688 104.908 402.416 100.727 414.877 100.727C427.125 100.727 436.428 104.148 442.785 110.992C449.142 117.835 452.756 127.665 453.627 140.481H430.851C430.648 132.554 429.423 127.088 427.186 124.071C424.949 121.065 420.839 119.556 414.877 119.556C408.803 119.556 404.501 121.682 401.981 125.924C399.46 130.165 398.124 137.161 397.962 146.879V168.108C397.962 179.274 399.207 186.947 401.707 191.118C404.208 195.289 408.49 197.374 414.563 197.374C420.536 197.374 424.645 195.916 426.913 193.011C429.18 190.105 430.466 184.841 430.77 177.219H453.475V177.229Z" fill="white"/>
<path d="M542.625 168.583C542.625 183.667 539.062 195.37 531.935 203.711C524.809 212.053 514.909 216.224 502.256 216.224C489.643 216.224 479.743 212.093 472.536 203.833C465.328 195.572 461.674 184.001 461.573 169.13V149.906C461.573 134.468 465.146 122.411 472.303 113.735C479.46 105.06 489.39 100.727 502.104 100.727C514.605 100.727 524.465 104.989 531.672 113.502C538.88 122.026 542.534 133.972 542.635 149.359V168.583H542.625ZM519.849 149.754C519.849 139.61 518.412 132.079 515.527 127.139C512.642 122.198 508.167 119.728 502.094 119.728C496.071 119.728 491.617 122.107 488.742 126.865C485.857 131.623 484.369 138.871 484.268 148.6V168.593C484.268 178.423 485.736 185.671 488.671 190.328C491.607 194.985 496.132 197.313 502.256 197.313C508.178 197.313 512.571 195.036 515.456 190.48C518.341 185.925 519.798 178.858 519.859 169.292V149.754H519.849Z" fill="white"/>
<path d="M633.547 214.675H610.852L577.659 140.947V214.675H554.965V102.276H577.659L610.933 176.075V102.276H633.547V214.675Z" fill="white"/>
<path d="M695.285 185.186C695.285 180.61 694.111 177.148 691.772 174.799C689.434 172.461 685.172 170.031 678.997 167.5C667.731 163.228 659.623 158.227 654.683 152.487C649.743 146.747 647.273 139.965 647.273 132.15C647.273 122.684 650.634 115.072 657.345 109.332C664.056 103.592 672.59 100.727 682.935 100.727C689.829 100.727 695.983 102.185 701.389 105.09C706.794 107.995 710.945 112.105 713.86 117.4C716.775 122.694 718.223 128.718 718.223 135.46H695.609C695.609 130.206 694.485 126.207 692.248 123.454C690.011 120.7 686.782 119.323 682.561 119.323C678.593 119.323 675.505 120.498 673.298 122.836C671.082 125.175 669.978 128.333 669.978 132.291C669.978 135.379 671.213 138.173 673.683 140.663C676.153 143.164 680.526 145.745 686.802 148.418C697.765 152.386 705.731 157.245 710.691 163.005C715.662 168.766 718.142 176.105 718.142 185.003C718.142 194.782 715.024 202.426 708.799 207.933C702.573 213.44 694.1 216.193 683.401 216.193C676.143 216.193 669.533 214.695 663.56 211.719C657.588 208.732 652.921 204.46 649.551 198.903C646.18 193.345 644.489 186.785 644.489 179.213H667.265C667.265 185.702 668.531 190.409 671.051 193.345C673.572 196.281 677.692 197.749 683.401 197.749C691.327 197.769 695.285 193.578 695.285 185.186Z" fill="white"/>
<path d="M802.342 102.276V180.094C802.241 191.776 799.022 200.725 792.695 206.92C786.368 213.126 777.278 216.224 765.445 216.224C753.399 216.224 744.208 213.085 737.85 206.809C731.493 200.532 728.315 191.442 728.315 179.557V102.276H751.162V179.628C751.162 186.006 752.194 190.561 754.249 193.294C756.304 196.028 760.039 197.384 765.445 197.384C770.85 197.384 774.555 196.028 776.56 193.335C778.564 190.632 779.596 186.198 779.647 180.013V102.276H802.342Z" fill="white"/>
<path d="M838.298 195.835H878.13V214.675H815.603V102.276H838.298V195.835Z" fill="white"/>
<path d="M944.272 121.186H916.485V214.675H893.709V121.186H866.378V102.276H944.272V121.186Z" fill="white"/>
<path d="M977.069 214.675H954.374V102.276H977.069V214.675Z" fill="white"/>
<path d="M1070.76 214.675H1048.07L1014.88 140.947V214.675H992.182V102.276H1014.88L1048.15 176.075V102.276H1070.76V214.675Z" fill="white"/>
<path d="M1161.45 201.94C1157.08 206.677 1151.72 210.241 1145.36 212.63C1139 215.019 1132.04 216.224 1124.48 216.224C1111.56 216.224 1101.52 212.225 1094.37 204.217C1087.21 196.22 1083.54 184.568 1083.33 169.282V149.055C1083.33 133.567 1086.71 121.642 1093.48 113.27C1100.24 104.908 1110.11 100.727 1123.09 100.727C1135.29 100.727 1144.49 103.733 1150.68 109.757C1156.89 115.78 1160.47 125.225 1161.45 138.092H1139.38C1138.76 130.935 1137.26 126.065 1134.9 123.464C1132.53 120.862 1128.83 119.566 1123.79 119.566C1117.66 119.566 1113.21 121.804 1110.44 126.278C1107.65 130.753 1106.21 137.879 1106.11 147.658V168.047C1106.11 178.292 1107.64 185.742 1110.71 190.399C1113.77 195.056 1118.8 197.384 1125.8 197.384C1130.28 197.384 1133.91 196.483 1136.68 194.681L1138.69 193.294V172.683H1122.78V155.545H1161.46V201.94H1161.45Z" fill="white"/>
<path d="M39.8731 282.531C27.0579 282.531 17.0972 278.249 10.2644 269.796C3.45183 261.374 0 249.236 0 233.697V224.656H23.7882V233.929C23.7882 244.954 25.0232 252.607 27.4628 256.677C29.8517 260.665 34.0324 262.68 39.8833 262.68C45.6633 262.68 49.682 261.283 51.8381 258.509C54.0246 255.695 55.2899 250.481 55.5936 243.01L55.6139 242.524H79.3211L79.3009 243.051C78.734 255.938 75.0494 265.838 68.3482 272.489C61.6267 279.15 52.0507 282.531 39.8731 282.531ZM1.01227 225.669V233.697C1.01227 248.993 4.39323 260.928 11.0539 269.159C17.6843 277.358 27.3818 281.519 39.8833 281.519C51.7875 281.519 61.1206 278.239 67.6295 271.781C74.0472 265.403 77.6306 255.907 78.2582 243.536H56.5755C56.2313 250.967 54.9053 256.211 52.6277 259.126C50.2691 262.153 45.9771 263.682 39.8731 263.682C33.6376 263.682 29.1735 261.495 26.5821 257.183C24.0514 252.951 22.7659 245.126 22.7659 233.919V225.659H1.01227V225.669Z" fill="white"/>
<path d="M102.158 281.833C98.3922 281.833 95.2238 280.669 92.7438 278.381C90.2536 276.083 88.9883 273.046 88.9883 269.361C88.9883 265.737 90.2232 262.7 92.6527 260.351C95.0821 258.003 98.2809 256.808 102.148 256.808C105.913 256.808 109.092 257.982 111.602 260.301C114.113 262.629 115.388 265.676 115.388 269.361C115.388 273.096 114.103 276.144 111.552 278.421C109.041 280.689 105.873 281.833 102.158 281.833ZM102.158 257.82C98.5542 257.82 95.5984 258.914 93.3613 261.07C91.1343 263.226 90.0005 266.01 90.0005 269.351C90.0005 272.742 91.1545 275.526 93.4321 277.622C95.7198 279.737 98.6554 280.81 102.158 280.81C105.62 280.81 108.555 279.748 110.894 277.662C113.212 275.587 114.396 272.793 114.396 269.351C114.396 265.96 113.232 263.166 110.934 261.04C108.616 258.904 105.66 257.82 102.158 257.82Z" fill="white"/>
<path d="M215.461 280.983H190.144L184.121 257.972H153.945L147.922 280.983H122.838L140.442 224.656H162.661L159.148 238.05H178.837L175.324 224.656H197.746L197.857 225.011L215.461 280.983ZM190.923 279.97H214.084L197.007 225.669H176.64L180.153 239.062H157.843L161.355 225.669H141.191L124.225 279.97H147.153L153.176 256.96H184.911L190.923 279.97Z" fill="white"/>
<path d="M234.674 281.833C230.908 281.833 227.74 280.669 225.259 278.381C222.769 276.083 221.504 273.046 221.504 269.361C221.504 265.737 222.739 262.7 225.168 260.351C227.598 258.003 230.797 256.808 234.663 256.808C238.429 256.808 241.608 257.982 244.118 260.301C246.628 262.629 247.904 265.676 247.904 269.361C247.904 273.096 246.618 276.144 244.067 278.421C241.557 280.689 238.389 281.833 234.674 281.833ZM234.674 257.82C231.07 257.82 228.114 258.914 225.877 261.07C223.65 263.226 222.516 266.01 222.516 269.351C222.516 272.742 223.67 275.526 225.948 277.622C228.236 279.737 231.171 280.81 234.674 280.81C238.135 280.81 241.071 279.748 243.409 277.662C245.727 275.587 246.912 272.793 246.912 269.351C246.912 265.96 245.748 263.166 243.45 261.04C241.132 258.904 238.176 257.82 234.674 257.82Z" fill="white"/>
<path d="M298.963 282.531C291.664 282.531 284.912 281.003 278.899 277.996C272.866 274.979 268.088 270.606 264.687 264.988C261.286 259.379 259.555 252.668 259.555 245.045V244.539H283.343V245.045C283.343 251.372 284.578 256.019 287.008 258.843C289.417 261.647 293.446 263.064 298.973 263.064C306.636 263.064 310.351 259.116 310.351 250.987C310.351 246.573 309.217 243.192 306.99 240.965C304.702 238.687 300.471 236.268 294.387 233.788C287.878 231.318 282.341 228.564 277.918 225.588L276.541 224.656H322.72L322.862 224.778C324.279 225.993 325.555 227.248 326.638 228.503C331.659 234.334 334.21 241.846 334.21 250.835C334.21 260.716 331.011 268.561 324.694 274.149C318.398 279.707 309.743 282.531 298.963 282.531ZM260.567 245.551C260.638 252.779 262.318 259.136 265.548 264.471C268.858 269.928 273.494 274.17 279.355 277.095C285.226 280.031 291.826 281.519 298.973 281.519C309.5 281.519 317.932 278.786 324.036 273.38C330.12 268.005 333.207 260.412 333.207 250.825C333.207 242.089 330.738 234.8 325.879 229.151C324.866 227.977 323.682 226.803 322.356 225.659H279.912C284.021 228.24 289.002 230.65 294.751 232.826H294.762C300.967 235.357 305.33 237.857 307.709 240.236C310.138 242.666 311.373 246.28 311.373 250.977C311.373 259.663 307.202 264.067 298.983 264.067C293.142 264.067 288.86 262.528 286.248 259.491C283.728 256.555 282.412 251.858 282.351 245.541H260.567V245.551Z" fill="white"/>
<path d="M414.573 282.531C401.758 282.531 391.797 278.249 384.965 269.796C378.152 261.384 374.7 249.236 374.7 233.697V224.656H398.489V233.929C398.489 244.954 399.723 252.607 402.163 256.677C404.552 260.665 408.733 262.68 414.584 262.68C420.364 262.68 424.382 261.283 426.538 258.509C428.725 255.695 429.99 250.481 430.294 243.01L430.314 242.524H454.021L454.001 243.051C453.434 255.938 449.74 265.838 443.048 272.489C436.317 279.15 426.741 282.531 414.573 282.531ZM375.702 225.669V233.697C375.702 248.993 379.083 260.928 385.744 269.159C392.374 277.358 402.072 281.519 414.573 281.519C426.478 281.519 435.811 278.239 442.32 271.781C448.747 265.403 452.321 255.907 452.948 243.536H431.266C430.922 250.967 429.595 256.211 427.318 259.126C424.959 262.153 420.667 263.682 414.563 263.682C408.328 263.682 403.864 261.495 401.272 257.183C398.742 252.951 397.456 245.126 397.456 233.919V225.659H375.702V225.669Z" fill="white"/>
<path d="M502.246 282.531C489.542 282.531 479.419 278.3 472.141 269.968C464.883 261.657 461.158 249.863 461.057 234.942V224.667H484.764V234.405C484.764 244.093 486.222 251.311 489.086 255.867C491.911 260.341 496.334 262.619 502.246 262.619C507.955 262.619 512.247 260.402 515.021 256.018C517.835 251.564 519.292 244.528 519.343 235.094V224.667H543.131V234.405C543.131 249.539 539.497 261.465 532.32 269.857C525.123 278.259 515 282.531 502.246 282.531ZM462.069 225.669V234.932C462.17 249.61 465.814 261.171 472.91 269.3C479.976 277.409 489.856 281.519 502.246 281.519C514.687 281.519 524.546 277.368 531.541 269.189C538.556 260.979 542.109 249.276 542.109 234.395V225.669H520.345V235.083C520.294 244.711 518.786 251.929 515.871 256.545C512.905 261.232 508.319 263.611 502.246 263.611C495.97 263.611 491.253 261.181 488.236 256.383C485.26 251.665 483.762 244.265 483.762 234.385V225.659H462.069V225.669Z" fill="white"/>
<path d="M634.053 280.983H610.528L585.171 224.656H603.725L610.427 239.528V224.656H634.053V280.983ZM611.176 279.97H633.041V225.669H611.439V244.235L603.067 225.669H586.729L611.176 279.97Z" fill="white"/>
<path d="M578.156 280.983H554.448V224.656H578.156V280.983ZM555.461 279.97H577.143V225.669H555.461V279.97Z" fill="white"/>
<path d="M683.401 282.532C676.102 282.532 669.351 281.003 663.338 277.996C657.305 274.98 652.527 270.606 649.125 264.988C645.724 259.38 643.993 252.668 643.993 245.045V244.539H667.782V245.045C667.782 251.372 669.016 256.019 671.446 258.843C673.855 261.647 677.884 263.064 683.411 263.064C691.074 263.064 694.789 259.116 694.789 250.987C694.789 246.574 693.655 243.192 691.428 240.965C689.15 238.688 684.909 236.268 678.825 233.778C672.327 231.318 666.779 228.554 662.366 225.578L660.989 224.646H707.169L707.311 224.768C708.728 225.983 710.003 227.238 711.086 228.493C716.107 234.324 718.658 241.836 718.658 250.825C718.658 260.706 715.459 268.551 709.143 274.139C702.836 279.707 694.181 282.532 683.401 282.532ZM644.995 245.551C645.066 252.779 646.747 259.137 649.976 264.472C653.276 269.928 657.922 274.17 663.783 277.095C669.654 280.031 676.254 281.519 683.401 281.519C693.928 281.519 702.361 278.786 708.465 273.38C714.548 268.005 717.636 260.412 717.636 250.825C717.636 242.089 715.176 234.8 710.307 229.151C709.295 227.977 708.11 226.803 706.784 225.659H664.34C668.45 228.24 673.43 230.65 679.18 232.826H679.19C685.395 235.357 689.748 237.857 692.137 240.236C694.566 242.666 695.801 246.28 695.801 250.977C695.801 259.663 691.631 264.067 683.411 264.067C677.57 264.067 673.288 262.528 670.677 259.491C668.156 256.555 666.84 251.858 666.779 245.541H644.995V245.551Z" fill="white"/>
<path d="M765.445 282.531C753.318 282.531 743.914 279.312 737.496 272.965C731.068 266.618 727.809 257.335 727.809 245.349V224.656H751.668V245.43C751.668 251.676 752.67 256.17 754.654 258.792C756.598 261.374 760.232 262.68 765.445 262.68C770.658 262.68 774.262 261.384 776.155 258.833C778.088 256.231 779.09 251.848 779.141 245.814V224.656H802.848V245.895C802.747 257.669 799.447 266.82 793.049 273.086C786.652 279.353 777.359 282.531 765.445 282.531ZM728.821 225.669V245.349C728.821 257.041 731.979 266.091 738.205 272.236C744.43 278.391 753.601 281.509 765.445 281.509C777.086 281.509 786.136 278.432 792.341 272.347C798.546 266.273 801.735 257.365 801.836 245.875V225.659H780.153V245.804C780.103 252.06 779.029 256.646 776.964 259.42C774.869 262.244 770.992 263.682 765.445 263.682C759.898 263.682 756 262.234 753.844 259.39C751.729 256.585 750.656 251.888 750.656 245.419V225.659H728.821V225.669Z" fill="white"/>
<path d="M878.636 280.983H815.096V224.656H838.804V261.141H878.636V280.983ZM816.109 279.97H877.624V262.143H837.792V225.659H816.109V279.97Z" fill="white"/>
<path d="M916.991 280.983H893.203V224.656H916.991V280.983ZM894.215 279.97H915.979V225.669H894.215V279.97Z" fill="white"/>
<path d="M977.575 280.983H953.868V224.656H977.575V280.983ZM954.88 279.97H976.563V225.669H954.88V279.97Z" fill="white"/>
<path d="M1015.38 280.983H991.676V224.656H1015.38V280.983ZM992.688 279.97H1014.37V225.669H992.688V279.97Z" fill="white"/>
<path d="M1071.27 280.983H1047.75L1022.39 224.656H1040.94L1047.64 239.528V224.656H1071.27V280.983ZM1048.39 279.97H1070.26V225.669H1048.66V244.235L1040.29 225.669H1023.95L1048.39 279.97Z" fill="white"/>
<path d="M1124.48 282.531C1111.47 282.531 1101.21 278.432 1094 270.353C1086.79 262.295 1083.03 250.43 1082.83 235.094V224.656H1106.62V233.848C1106.62 243.941 1108.14 251.372 1111.13 255.917C1114.08 260.402 1119.02 262.68 1125.8 262.68C1130.15 262.68 1133.73 261.799 1136.41 260.058L1138.18 258.833V238.991H1122.28V224.656H1161.97V267.934L1161.84 268.075C1157.42 272.843 1151.95 276.488 1145.55 278.897C1139.15 281.307 1132.07 282.531 1124.48 282.531ZM1083.84 225.669V235.084C1084.05 250.167 1087.72 261.809 1094.76 269.675C1101.77 277.531 1111.77 281.509 1124.49 281.509C1131.95 281.509 1138.91 280.314 1145.19 277.956C1151.37 275.627 1156.68 272.125 1160.96 267.539V225.669H1123.29V237.979H1139.19V259.359L1136.97 260.898C1134.1 262.751 1130.35 263.692 1125.79 263.692C1118.64 263.692 1113.42 261.262 1110.27 256.474C1107.17 251.757 1105.6 244.144 1105.6 233.848V225.669H1083.84Z" fill="white"/>
<path d="M577.649 208.773V227.187H585.94L577.649 208.773Z" fill="white"/>
<path d="M39.8731 321C27.0579 321 17.0972 316.718 10.2644 308.265C6.52911 303.649 3.78587 297.878 2.09538 291.086L1.94354 290.458H25.5799L25.6812 290.822C26.1772 292.553 26.7845 294.011 27.4628 295.135C29.8517 299.123 34.0324 301.138 39.8833 301.138C45.6633 301.138 49.682 299.741 51.8381 296.967C52.9415 295.55 53.8222 293.485 54.4498 290.832L54.5409 290.448H78.319L78.1975 291.045C76.588 299.356 73.2678 306.058 68.338 310.958C61.6267 317.619 52.0507 321 39.8731 321ZM3.23924 291.47C4.89936 297.838 7.53125 303.274 11.0539 307.627C17.6843 315.827 27.3818 319.988 39.8833 319.988C51.7875 319.988 61.1206 316.708 67.6295 310.249C72.296 305.612 75.4846 299.296 77.0941 291.47H55.3304C54.6725 294.082 53.7614 296.147 52.6277 297.605C50.2691 300.632 45.9771 302.16 39.8731 302.16C33.6376 302.16 29.1735 299.974 26.5821 295.661C25.9039 294.538 25.3168 293.13 24.8106 291.47H3.23924Z" fill="white"/>
<path d="M102.158 320.301C98.3922 320.301 95.2238 319.137 92.7438 316.849C90.2536 314.551 88.9883 311.514 88.9883 307.83C88.9883 304.205 90.2232 301.168 92.6527 298.82C95.0821 296.471 98.2809 295.277 102.148 295.277C105.913 295.277 109.092 296.451 111.602 298.769C114.113 301.098 115.388 304.145 115.388 307.83C115.388 311.565 114.103 314.612 111.552 316.89C109.041 319.157 105.873 320.301 102.158 320.301ZM102.158 296.289C98.5542 296.289 95.5984 297.382 93.3613 299.539C91.1343 301.695 90.0005 304.479 90.0005 307.819C90.0005 311.211 91.1545 313.995 93.4321 316.09C95.7198 318.206 98.6554 319.279 102.158 319.279C105.62 319.279 108.555 318.216 110.894 316.131C113.212 314.055 114.396 311.261 114.396 307.819C114.396 304.428 113.232 301.634 110.934 299.508C108.616 297.372 105.66 296.289 102.158 296.289Z" fill="white"/>
<path d="M215.461 319.451H190.144L184.121 296.441H153.945L147.922 319.451H122.838L131.898 290.458H206.34L215.461 319.451ZM190.923 318.439H214.084L205.601 291.47H132.647L124.215 318.439H147.143L153.166 295.429H184.9L190.923 318.439Z" fill="white"/>
<path d="M234.674 320.301C230.908 320.301 227.74 319.137 225.259 316.849C222.769 314.551 221.504 311.514 221.504 307.83C221.504 304.205 222.739 301.168 225.168 298.82C227.598 296.471 230.797 295.277 234.663 295.277C238.429 295.277 241.608 296.451 244.118 298.769C246.628 301.098 247.904 304.145 247.904 307.83C247.904 311.565 246.618 314.612 244.067 316.89C241.557 319.157 238.389 320.301 234.674 320.301ZM234.674 296.289C231.07 296.289 228.114 297.382 225.877 299.539C223.65 301.695 222.516 304.479 222.516 307.819C222.516 311.211 223.67 313.995 225.948 316.09C228.236 318.206 231.171 319.279 234.674 319.279C238.135 319.279 241.071 318.216 243.409 316.131C245.727 314.055 246.912 311.261 246.912 307.819C246.912 304.428 245.748 301.634 243.45 299.508C241.132 297.372 238.176 296.289 234.674 296.289Z" fill="white"/>
<path d="M298.963 321C291.664 321 284.912 319.471 278.899 316.465C272.866 313.448 268.088 309.075 264.687 303.456C262.47 299.802 260.952 295.621 260.183 291.045L260.081 290.458H283.981L284.072 290.853C284.679 293.576 285.671 295.742 287.008 297.311C289.417 300.116 293.446 301.533 298.973 301.533C306.16 301.533 309.865 298.061 310.31 290.934L310.34 290.458H334.199L334.179 290.984C333.835 300.075 330.646 307.354 324.704 312.608C318.398 318.176 309.743 321 298.963 321ZM261.276 291.47C262.055 295.692 263.493 299.549 265.548 302.93C268.858 308.386 273.494 312.628 279.355 315.554C285.226 318.489 291.826 319.978 298.973 319.978C309.5 319.978 317.932 317.244 324.036 311.838C329.654 306.868 332.722 300.014 333.147 291.46H311.282C310.664 298.81 306.524 302.535 298.973 302.535C293.132 302.535 288.85 300.996 286.238 297.959C284.852 296.35 283.819 294.163 283.171 291.46H261.276V291.47Z" fill="white"/>
<path d="M414.573 321C401.758 321 391.797 316.718 384.965 308.265C381.229 303.649 378.486 297.878 376.796 291.086L376.644 290.458H400.28L400.381 290.822C400.888 292.553 401.475 294.011 402.153 295.135C404.542 299.123 408.722 301.138 414.573 301.138C420.353 301.138 424.372 299.741 426.528 296.967C427.632 295.55 428.512 293.485 429.14 290.832L429.231 290.448H453.009L452.888 291.045C451.278 299.356 447.958 306.058 443.018 310.958C436.317 317.619 426.741 321 414.573 321ZM377.929 291.47C379.589 297.838 382.221 303.274 385.744 307.627C392.374 315.827 402.072 319.988 414.573 319.988C426.478 319.988 435.811 316.708 442.32 310.249C446.986 305.612 450.175 299.296 451.784 291.47H430.031C429.373 294.082 428.462 296.147 427.328 297.605C424.969 300.632 420.677 302.16 414.573 302.16C408.338 302.16 403.874 299.974 401.282 295.661C400.604 294.538 400.017 293.13 399.511 291.47H377.929Z" fill="white"/>
<path d="M502.246 321C489.542 321 479.419 316.768 472.141 308.437C468.041 303.74 465.045 297.909 463.233 291.096L463.061 290.458H487.214L487.335 290.782C487.851 292.118 488.438 293.303 489.076 294.325C491.9 298.8 496.324 301.077 502.236 301.077C507.945 301.077 512.237 298.86 515.01 294.477C515.689 293.414 516.296 292.169 516.822 290.792L516.944 290.468H541.157L540.985 291.106C539.214 297.868 536.288 303.659 532.3 308.326C525.123 316.728 515 321 502.246 321ZM464.387 291.47C466.179 297.858 469.043 303.335 472.91 307.769C479.976 315.878 489.856 319.988 502.246 319.988C514.686 319.988 524.546 315.837 531.541 307.658C535.306 303.254 538.09 297.818 539.841 291.47H517.642C517.126 292.786 516.529 293.981 515.871 295.013C512.905 299.701 508.319 302.08 502.246 302.08C495.97 302.08 491.253 299.65 488.236 294.852C487.608 293.859 487.042 292.726 486.535 291.46H464.387V291.47Z" fill="white"/>
<path d="M634.053 319.451H610.528L597.47 290.458H634.053V319.451ZM611.176 318.439H633.041V291.47H599.039L611.176 318.439Z" fill="white"/>
<path d="M578.156 319.451H554.448V290.458H578.156V319.451ZM555.461 318.439H577.143V291.47H555.461V318.439Z" fill="white"/>
<path d="M683.401 321C676.102 321 669.351 319.471 663.338 316.465C657.305 313.448 652.527 309.075 649.125 303.456C646.909 299.802 645.39 295.621 644.621 291.045L644.52 290.458H668.419L668.51 290.853C669.118 293.576 670.11 295.742 671.446 297.311C673.855 300.116 677.884 301.533 683.411 301.533C690.598 301.533 694.303 298.061 694.748 290.934L694.779 290.458H718.648L718.628 290.984C718.283 300.075 715.095 307.354 709.153 312.608C702.836 318.176 694.181 321 683.401 321ZM645.704 291.47C646.483 295.692 647.921 299.549 649.976 302.93C653.276 308.386 657.922 312.628 663.783 315.554C669.654 318.489 676.254 319.978 683.401 319.978C693.928 319.978 702.361 317.244 708.464 311.838C714.083 306.868 717.15 300.014 717.575 291.46H695.71C695.092 298.81 690.952 302.535 683.401 302.535C677.56 302.535 673.278 300.996 670.666 297.959C669.28 296.35 668.247 294.163 667.599 291.46H645.704V291.47Z" fill="white"/>
<path d="M765.445 321C753.318 321 743.914 317.781 737.496 311.433C732.435 306.432 729.317 299.569 728.254 291.025L728.183 290.458H752.154L752.225 290.873C752.721 293.616 753.531 295.762 754.664 297.251C756.608 299.832 760.242 301.138 765.455 301.138C770.668 301.138 774.272 299.842 776.165 297.291C777.288 295.773 778.108 293.616 778.604 290.863L778.675 290.448H802.504L802.433 291.015C801.35 299.599 798.202 306.503 793.07 311.535C786.652 317.821 777.359 321 765.445 321ZM729.317 291.47C730.421 299.508 733.407 305.987 738.195 310.715C744.42 316.87 753.591 319.988 765.435 319.988C777.076 319.988 786.125 316.91 792.331 310.826C797.179 306.068 800.206 299.559 801.33 291.47H779.505C778.979 294.183 778.129 296.34 776.964 297.898C774.869 300.723 770.992 302.16 765.445 302.16C759.898 302.16 756 300.713 753.844 297.868C752.68 296.329 751.83 294.183 751.293 291.47H729.317Z" fill="white"/>
<path d="M878.636 319.451H815.096V290.458H838.804V299.609H878.636V319.451ZM816.109 318.439H877.624V300.612H837.792V291.46H816.109V318.439Z" fill="white"/>
<path d="M916.991 319.451H893.203V290.458H916.991V319.451ZM894.215 318.439H915.979V291.47H894.215V318.439Z" fill="white"/>
<path d="M977.575 319.451H953.868V290.458H977.575V319.451ZM954.88 318.439H976.563V291.47H954.88V318.439Z" fill="white"/>
<path d="M1015.38 319.451H991.676V290.458H1015.38V319.451ZM992.688 318.439H1014.37V291.47H992.688V318.439Z" fill="white"/>
<path d="M1071.27 319.451H1047.75L1034.69 290.458H1071.27V319.451ZM1048.39 318.439H1070.26V291.47H1036.26L1048.39 318.439Z" fill="white"/>
<path d="M1124.48 321C1111.47 321 1101.21 316.9 1094 308.822C1089.84 304.165 1086.8 298.202 1084.97 291.086L1084.8 290.448H1109.16L1109.29 290.772C1109.83 292.138 1110.45 293.353 1111.12 294.386C1114.07 298.87 1119.01 301.148 1125.79 301.148C1130.14 301.148 1133.72 300.267 1136.4 298.526L1138.17 297.301V290.458H1161.96V306.402L1161.83 306.544C1157.41 311.312 1151.94 314.956 1145.54 317.366C1139.15 319.775 1132.07 321 1124.48 321ZM1086.12 291.47C1087.92 298.141 1090.83 303.76 1094.76 308.153C1101.77 316.009 1111.77 319.988 1124.49 319.988C1131.95 319.988 1138.91 318.793 1145.19 316.434C1151.37 314.106 1156.68 310.603 1160.96 306.017V291.48H1139.19V297.838L1136.97 299.377C1134.1 301.229 1130.35 302.171 1125.79 302.171C1118.64 302.171 1113.42 299.741 1110.27 294.953C1109.62 293.95 1109.01 292.776 1108.47 291.48H1086.12V291.47Z" fill="white"/>
<path d="M23.7882 92.0412H0V76.0869C0 60.5982 3.5733 48.4705 10.6187 40.058C17.6843 31.6152 27.6349 27.333 40.1869 27.333C52.5265 27.333 62.0316 30.8458 68.4595 37.76C74.8672 44.6641 78.5619 54.6862 79.4426 67.563L79.4831 68.0996H55.6746L55.6645 67.6035C55.462 59.8187 54.2574 54.3926 52.1013 51.4872C49.9756 48.6223 45.967 47.1747 40.1971 47.1747C34.3462 47.1747 30.1554 49.2297 27.7361 53.2993C25.2763 57.4499 23.9401 64.4147 23.7882 74.0116V92.0412ZM1.01227 91.0289H22.776V74.0015C22.9278 64.2223 24.3045 57.0854 26.8655 52.783C29.4772 48.3895 33.9514 46.1624 40.1971 46.1624C46.3111 46.1624 50.5829 47.7517 52.9111 50.8798C55.1584 53.8966 56.4136 59.3429 56.6666 67.0771H78.4C77.4687 54.6963 73.8853 45.069 67.7307 38.4383C61.4951 31.7468 52.2228 28.3453 40.1869 28.3453C27.9487 28.3453 18.2613 32.506 11.3981 40.7059C4.50458 48.9361 1.01227 60.8412 1.01227 76.0869V91.0289Z" fill="white"/>
<path d="M199.659 92.0412H176.924L168.998 61.8028L161.072 92.0412H138.539L158.278 28.8818H179.788L199.659 92.0412ZM177.703 91.0288H198.283L179.05 29.8942H159.027L139.925 91.0288H160.292L168.998 57.8041L177.703 91.0288Z" fill="white"/>
<path d="M328.389 92.0412L287.038 91.9906C279.466 88.4272 273.686 84.3677 269.86 79.9337C264.859 74.1229 262.329 67.1682 262.329 59.2619C262.329 49.6853 265.78 41.8802 272.583 36.0593C279.365 30.2688 288.081 27.333 298.497 27.333C305.441 27.333 311.737 28.8211 317.183 31.7569C322.65 34.7028 326.911 38.9141 329.857 44.2693C332.792 49.6245 334.28 55.7795 334.28 62.5722V63.0784H310.654V62.5722C310.654 57.4701 309.561 53.5321 307.405 50.8899C305.279 48.2781 302.151 46.9419 298.112 46.9419C294.316 46.9419 291.32 48.0655 289.214 50.2927C287.109 52.5299 286.036 55.5872 286.036 59.4037C286.036 62.3394 287.23 65.0423 289.599 67.4213C292.008 69.861 296.371 72.4324 302.546 75.0644C313.529 79.0429 321.637 83.9932 326.638 89.7938C327.033 90.2595 327.407 90.7252 327.782 91.2111L328.389 92.0412ZM287.362 91.0289H326.324C326.172 90.8365 326.02 90.6543 325.858 90.4721C320.969 84.803 313.003 79.9438 302.182 76.0261L302.151 76.016C295.845 73.3333 291.371 70.681 288.87 68.1502C286.319 65.5687 285.024 62.633 285.024 59.4138C285.024 55.3341 286.188 52.0339 288.486 49.6043C290.783 47.1646 294.023 45.9295 298.112 45.9295C302.475 45.9295 305.866 47.3873 308.194 50.2421C310.421 52.9855 311.585 56.9538 311.666 62.056H333.268C333.197 55.6277 331.75 49.8068 328.976 44.7451C326.132 39.5518 322.002 35.4823 316.718 32.6376C311.413 29.7829 305.289 28.3352 298.507 28.3352C288.334 28.3352 279.841 31.19 273.241 36.8185C266.671 42.4269 263.341 49.9789 263.341 59.2417C263.341 66.905 265.791 73.637 270.629 79.2555C274.334 83.5781 279.972 87.5363 287.362 91.0289Z" fill="white"/>
<path d="M398.478 92.0412H374.69V76.0869C374.69 60.5982 378.263 48.4705 385.309 40.058C392.374 31.6152 402.325 27.333 414.877 27.333C427.217 27.333 436.722 30.8458 443.15 37.76C449.557 44.6641 453.252 54.6862 454.133 67.563L454.173 68.0996H430.365L430.355 67.6035C430.152 59.8187 428.948 54.3926 426.791 51.4872C424.666 48.6223 420.657 47.1747 414.887 47.1747C409.036 47.1747 404.846 49.2297 402.426 53.2993C399.966 57.4499 398.63 64.4147 398.478 74.0116V92.0412ZM375.702 91.0289H397.466V74.0015C397.618 64.2223 398.995 57.0854 401.556 52.783C404.167 48.3895 408.642 46.1624 414.887 46.1624C421.001 46.1624 425.273 47.7517 427.601 50.8798C429.849 53.8966 431.104 59.3429 431.357 67.0771H453.09C452.159 54.6963 448.575 45.069 442.421 38.4383C436.195 31.7366 426.923 28.3352 414.887 28.3352C402.649 28.3352 392.962 32.4959 386.098 40.6958C379.215 48.926 375.713 60.831 375.713 76.0767V91.0289H375.702Z" fill="white"/>
<path d="M543.131 92.0412H519.343V76.8664C519.343 66.8645 517.916 59.3429 515.091 54.504C512.318 49.7561 507.945 47.3468 502.094 47.3468C496.294 47.3468 491.941 49.665 489.167 54.2408C486.343 58.8975 484.865 66.1255 484.764 75.7123V92.0412H461.057V77.0182C461.057 61.5295 464.711 49.25 471.898 40.5237C479.126 31.767 489.289 27.333 502.094 27.333C514.697 27.333 524.779 31.6962 532.047 40.2908C539.295 48.8653 543.02 61.0335 543.131 76.4715V92.0412ZM520.355 91.0289H542.119V76.4715C542.018 61.2765 538.363 49.3208 531.278 40.9387C524.202 32.587 514.383 28.3453 502.094 28.3453C489.603 28.3453 479.703 32.6579 472.688 41.1716C465.642 49.7156 462.069 61.7725 462.069 77.0182V91.0289H483.752V75.7022C483.853 65.9231 485.381 58.5229 488.307 53.7042C491.273 48.8045 495.909 46.3142 502.094 46.3142C508.329 46.3142 512.996 48.8957 515.962 53.9776C518.877 58.9785 520.355 66.6722 520.355 76.8562V91.0289Z" fill="white"/>
<path d="M634.053 92.0412H610.427V28.8818H634.053V92.0412ZM611.429 91.0288H633.03V29.8942H611.429V91.0288Z" fill="white"/>
<path d="M606.458 92.0412H587.904L578.166 70.4178V92.0412H554.458V28.8818H577.983L606.458 92.0412ZM588.551 91.0288H604.889L577.325 29.8942H555.461V91.0288H577.143V65.7003L588.551 91.0288Z" fill="white"/>
<path d="M712.827 92.0412L671.476 91.9906C663.905 88.4272 658.124 84.3677 654.298 79.9337C649.298 74.1229 646.767 67.1682 646.767 59.2619C646.767 49.6853 650.219 41.8802 657.021 36.0593C663.803 30.2688 672.519 27.333 682.945 27.333C689.889 27.333 696.186 28.8211 701.632 31.7569C707.098 34.7028 711.36 38.9141 714.305 44.2693C717.241 49.6245 718.729 55.7795 718.729 62.5722V63.0784H695.103V62.5722C695.103 57.4701 694.009 53.5321 691.853 50.8899C689.727 48.2781 686.6 46.9419 682.561 46.9419C678.765 46.9419 675.768 48.0655 673.663 50.2927C671.557 52.5299 670.484 55.5872 670.484 59.4037C670.484 62.3394 671.679 65.0423 674.047 67.4213C676.457 69.861 680.819 72.4324 686.994 75.0644C697.977 79.0429 706.086 83.9932 711.086 89.7938C711.481 90.2595 711.856 90.7353 712.23 91.2111L712.827 92.0412ZM671.8 91.0289H710.762C710.611 90.8365 710.459 90.6543 710.297 90.4721C705.407 84.803 697.441 79.9438 686.62 76.0261L686.589 76.016C680.283 73.3333 675.809 70.681 673.309 68.1502C670.758 65.5687 669.462 62.633 669.462 59.4138C669.462 55.3341 670.626 52.0339 672.924 49.6043C675.222 47.1646 678.461 45.9295 682.55 45.9295C686.913 45.9295 690.304 47.3873 692.633 50.2421C694.86 52.9855 696.034 56.9538 696.105 62.056H717.706C717.636 55.6277 716.188 49.8068 713.414 44.7451C710.57 39.5518 706.44 35.4823 701.156 32.6376C695.852 29.7829 689.727 28.3352 682.945 28.3352C672.772 28.3352 664.279 31.19 657.679 36.8185C651.109 42.4269 647.779 49.9789 647.779 59.2417C647.779 66.905 650.229 73.637 655.067 79.2555C658.772 83.5781 664.411 87.5363 671.8 91.0289Z" fill="white"/>
<path d="M751.668 92.0412H727.809V28.8818H751.668V92.0412ZM728.821 91.0288H750.656V29.8942H728.821V91.0288Z" fill="white"/>
<path d="M802.848 92.0412H779.141V28.8818H802.848V92.0412ZM780.153 91.0288H801.836V29.8942H780.153V91.0288Z" fill="white"/>
<path d="M838.804 92.0412H815.096V28.8818H838.804V92.0412ZM816.109 91.0288H837.792V29.8942H816.109V91.0288Z" fill="white"/>
<path d="M916.991 92.0412H893.203V48.8045H865.872V28.8818H944.778V48.8045H916.991V92.0412ZM894.215 91.0288H915.979V47.7922H943.766V29.8942H866.884V47.7922H894.215V91.0288Z" fill="white"/>
<path d="M977.575 92.0412H953.868V28.8818H977.575V92.0412ZM954.88 91.0288H976.563V29.8942H954.88V91.0288Z" fill="white"/>
<path d="M1043.68 92.0412H1025.12L1015.38 70.4178V92.0412H991.676V28.8818H1015.2L1043.68 92.0412ZM1025.77 91.0288H1042.11L1014.54 29.8942H992.678V91.0288H1014.36V65.7003L1025.77 91.0288Z" fill="white"/>
<path d="M1071.27 92.0412H1047.64V28.8818H1071.27V92.0412ZM1048.66 91.0288H1070.26V29.8942H1048.66V91.0288Z" fill="white"/>
<path d="M1106.61 92.0412H1082.82V76.1678C1082.82 60.6286 1086.27 48.4806 1093.08 40.0681C1099.92 31.6152 1110.01 27.333 1123.08 27.333C1135.36 27.333 1144.76 30.4206 1151.03 36.5047C1157.29 42.5888 1160.97 52.2262 1161.95 65.1638L1161.99 65.7105H1138.9L1138.86 65.2448C1138.25 58.2395 1136.79 53.4208 1134.51 50.9102C1132.25 48.43 1128.64 47.1747 1123.77 47.1747C1117.86 47.1747 1113.51 49.3512 1110.84 53.6536C1108.13 58.0269 1106.69 65.1334 1106.59 74.7708V92.0412H1106.61ZM1083.84 91.0289H1105.61V74.7708C1105.71 64.9411 1107.19 57.6624 1110.01 53.1272C1112.87 48.511 1117.51 46.1725 1123.8 46.1725C1128.97 46.1725 1132.83 47.5391 1135.29 50.2319C1137.67 52.8437 1139.2 57.7131 1139.85 64.6981H1160.92C1159.89 52.2971 1156.33 43.0545 1150.34 37.2336C1144.27 31.3317 1135.09 28.3453 1123.09 28.3453C1110.34 28.3453 1100.51 32.506 1093.87 40.7059C1087.21 48.9361 1083.83 60.8715 1083.83 76.1678V91.0289H1083.84Z" fill="white"/>
<path d="M1161.96 92.0411H1122.27V82.1506H1161.96V92.0411ZM1123.29 91.0288H1160.96V83.163H1123.29V91.0288Z" fill="white"/>
<path d="M74.361 19.1533H6.28616L6.71131 18.3941C7.88554 16.3289 9.20149 14.4257 10.6187 12.725C17.6843 4.28216 27.6348 0 40.1869 0C52.5265 0 62.0316 3.51279 68.4595 10.427C70.5853 12.725 72.4478 15.4077 73.9865 18.4143L74.361 19.1533ZM8.02726 18.141H72.7009C71.2837 15.519 69.6135 13.1603 67.7206 11.1154C61.4951 4.41376 52.2228 1.01233 40.1869 1.01233C27.9486 1.01233 18.2613 5.17301 11.3981 13.3729C10.1834 14.8205 9.05977 16.42 8.02726 18.141Z" fill="white"/>
<path d="M185.326 19.1533H152.771L158.278 1.54883H179.788L185.326 19.1533ZM154.148 18.1409H183.939L179.039 2.56116H159.027L154.148 18.1409Z" fill="white"/>
<path d="M330.15 19.1533H264.778L265.112 18.4345C266.813 14.7699 269.323 11.5001 272.573 8.73642C279.355 2.93576 288.081 0 298.497 0C305.441 0 311.737 1.48813 317.183 4.42389C322.65 7.36977 326.911 11.5811 329.857 16.9363C330.11 17.3918 330.333 17.8676 330.565 18.3333L330.92 19.0622L330.15 19.1533ZM266.388 18.141H329.341C329.219 17.8879 329.098 17.6551 328.966 17.4222C326.122 12.229 321.992 8.15939 316.708 5.31474C311.403 2.45996 305.279 1.01233 298.497 1.01233C288.324 1.01233 279.831 3.8671 273.231 9.49566C270.315 11.9961 268.018 14.9015 266.388 18.141Z" fill="white"/>
<path d="M449.061 19.1533H380.976L381.401 18.3941C382.576 16.3289 383.892 14.4257 385.309 12.725C392.374 4.28216 402.325 0 414.877 0C427.217 0 436.722 3.51279 443.15 10.427C445.275 12.7149 447.138 15.4077 448.677 18.4143L449.061 19.1533ZM382.728 18.141H447.401C445.984 15.5089 444.314 13.1502 442.421 11.1154C436.185 4.41376 426.923 1.01233 414.877 1.01233C402.639 1.01233 392.951 5.17301 386.088 13.3729C384.884 14.8205 383.75 16.42 382.728 18.141Z" fill="white"/>
<path d="M536.349 19.1533H467.839L468.284 18.3941C469.377 16.5415 470.592 14.8003 471.908 13.2008C479.126 4.43401 489.289 0 502.094 0C514.697 0 524.779 4.36315 532.047 12.9578C533.444 14.6079 534.739 16.4403 535.893 18.3941L536.349 19.1533ZM469.61 18.141H534.557C533.555 16.5212 532.452 15.0027 531.277 13.6159C524.202 5.254 514.383 1.01233 502.094 1.01233C489.603 1.01233 479.703 5.32486 472.688 13.8386C471.584 15.1748 470.552 16.6225 469.61 18.141Z" fill="white"/>
<path d="M634.053 19.1533H610.427V1.54883H634.053V19.1533ZM611.429 18.1409H633.03V2.56116H611.429V18.1409Z" fill="white"/>
<path d="M585.92 19.1533H554.458V1.54883H577.983L585.92 19.1533ZM555.461 18.1409H584.351L577.325 2.56116H555.461V18.1409Z" fill="white"/>
<path d="M715.398 19.1533H649.216L649.551 18.4345C651.261 14.7699 653.762 11.5001 657.011 8.73642C663.793 2.93576 672.519 0 682.935 0C689.879 0 696.176 1.48813 701.622 4.42389C707.088 7.36977 711.349 11.5811 714.295 16.9363C714.538 17.3716 714.761 17.8271 714.973 18.2726L715.398 19.1533ZM650.826 18.141H713.779C713.657 17.898 713.536 17.6652 713.404 17.4222C710.56 12.229 706.43 8.15939 701.146 5.31474C695.842 2.45996 689.717 1.01233 682.935 1.01233C672.762 1.01233 664.269 3.8671 657.669 9.49566C654.754 11.9961 652.456 14.9015 650.826 18.141Z" fill="white"/>
<path d="M751.668 19.1533H727.809V1.54883H751.668V19.1533ZM728.821 18.1409H750.656V2.56116H728.821V18.1409Z" fill="white"/>
<path d="M802.848 19.1533H779.141V1.54883H802.848V19.1533ZM780.153 18.1409H801.836V2.56116H780.153V18.1409Z" fill="white"/>
<path d="M838.804 19.1533H815.096V1.54883H838.804V19.1533ZM816.109 18.1409H837.792V2.56116H816.109V18.1409Z" fill="white"/>
<path d="M944.778 19.1533H865.872V1.54883H944.778V19.1533ZM866.884 18.1409H943.766V2.56116H866.884V18.1409Z" fill="white"/>
<path d="M977.575 19.1533H953.868V1.54883H977.575V19.1533ZM954.88 18.1409H976.563V2.56116H954.88V18.1409Z" fill="white"/>
<path d="M1023.14 19.1533H991.676V1.54883H1015.2L1023.14 19.1533ZM992.688 18.1409H1021.58L1014.55 2.56116H992.688V18.1409Z" fill="white"/>
<path d="M1071.27 19.1533H1047.64V1.54883H1071.27V19.1533ZM1048.66 18.1409H1070.26V2.56116H1048.66V18.1409Z" fill="white"/>
<path d="M1157.77 19.1533H1088.91L1089.33 18.4042C1090.46 16.339 1091.73 14.4358 1093.11 12.7351C1099.93 4.28216 1110.02 0 1123.09 0C1135.37 0 1144.77 3.08761 1151.04 9.17172C1153.59 11.6519 1155.74 14.7699 1157.43 18.4345L1157.77 19.1533ZM1090.63 18.141H1156.17C1154.59 14.9015 1152.63 12.1277 1150.33 9.9006C1144.25 3.99871 1135.08 1.01233 1123.08 1.01233C1110.33 1.01233 1100.5 5.17301 1093.86 13.3729C1092.71 14.8104 1091.62 16.4099 1090.63 18.141Z" fill="white"/>
</svg>
